<svg width="95" height="46" viewBox="0 0 95 46" fill="none" xmlns="http://www.w3.org/2000/svg">
<path d="M0.0914634 0.0487805C0.0365854 0.0853658 0.0182927 5.12805 0.00609756 22.6524L0 45.2134L0.426829 45.2317C1.78659 45.2805 12.3598 45.2073 12.4573 45.1463C12.5122 45.1159 12.5305 42.5 12.5305 34.7439C12.5305 26.1463 12.5427 24.3841 12.6098 24.3598C12.7744 24.2988 12.7805 24.3049 13.5061 25.689C13.7195 26.0915 13.939 26.5061 14 26.6098C14.0549 26.7134 14.128 26.8537 14.1646 26.9146C14.2744 27.1402 14.4329 27.439 14.6707 27.872C14.8049 28.1159 14.9939 28.4756 15.0976 28.6768C15.2012 28.8781 15.3415 29.1524 15.4207 29.2866C15.5549 29.5305 16.0061 30.3841 16.5427 31.3902C16.689 31.6768 16.8902 32.0427 16.9817 32.2134C17.0732 32.3781 17.3049 32.8171 17.5 33.189C17.6951 33.5549 17.9268 33.9939 18.0183 34.1646C18.1098 34.3293 18.3415 34.7683 18.5366 35.1402C18.7317 35.5061 18.9634 35.9451 19.0549 36.1159C19.1463 36.2805 19.3659 36.6951 19.5427 37.0305C19.7195 37.3659 19.939 37.7744 20.0305 37.9451C20.122 38.1098 20.3841 38.6037 20.6098 39.0427C20.8415 39.4756 21.0915 39.939 21.1707 40.061C21.25 40.189 21.311 40.3232 21.311 40.3598C21.311 40.3963 21.3598 40.5 21.4207 40.5854C21.4817 40.6768 21.5976 40.872 21.6707 41.0244C21.75 41.1768 21.9146 41.4878 22.0427 41.7256C22.1646 41.9573 22.4146 42.4268 22.5915 42.7622C22.7683 43.0976 22.9878 43.5061 23.0793 43.6768C23.1707 43.8415 23.3659 44.2073 23.5122 44.4817C23.6951 44.8293 23.811 44.9878 23.8902 44.9878C23.9695 44.9878 24.2683 44.4329 25.1463 42.6524C25.7805 41.372 26.8902 39.1159 27.622 37.6402C28.3537 36.1646 29.3659 34.1037 29.878 33.0671C30.7744 31.2439 33.25 26.2317 34.061 24.5915C34.372 23.9695 34.4817 23.7927 34.5915 23.7805L34.7256 23.7622V34.4268C34.7256 42.8902 34.7439 45.1098 34.8049 45.1585C34.8781 45.2195 42.9878 45.2561 43.2073 45.1951C43.2622 45.1768 43.3232 45.0915 43.3476 45C43.4024 44.75 43.5732 43.9939 43.5976 43.8902C43.6829 43.5061 43.8841 42.6707 43.9146 42.5488C43.9329 42.4634 43.9573 42.3659 43.9634 42.3354C43.9756 42.2988 44.0061 42.1646 44.0427 42.0305C44.0793 41.8963 44.122 41.7195 44.1402 41.6342C44.1646 41.4878 44.2195 41.2622 44.6098 39.622C44.7134 39.2012 44.872 38.5183 44.9695 38.0976C45.0671 37.6768 45.2439 36.9268 45.3659 36.4268C45.4878 35.9268 45.5976 35.4695 45.6098 35.4146C45.6402 35.2622 45.8171 34.5061 45.9146 34.1342C45.9634 33.9512 46.0122 33.7317 46.0305 33.6463C46.0427 33.561 46.1098 33.2622 46.1829 32.9756C46.25 32.689 46.3902 32.0976 46.4939 31.6646C46.5976 31.2256 46.689 30.8293 46.7012 30.7805C46.7927 30.4268 47.1159 29.0122 47.1402 28.8902C47.1585 28.8049 47.1951 28.6524 47.2256 28.5549C47.2988 28.3171 47.2561 28.0122 47.122 27.7744C46.9878 27.5488 46.8659 27.4878 42.4695 25.3659C42.0488 25.1646 41.2012 24.7561 40.5793 24.4573C39.9573 24.1524 39.3476 23.8598 39.2195 23.7988C38.8963 23.6463 38.6707 23.2927 38.6768 22.9512C38.6768 22.7256 38.811 22.439 39.5305 21.1341C40 20.2866 40.4695 19.4451 40.5732 19.2683C40.6768 19.0915 40.7622 18.9329 40.7622 18.9207C40.7622 18.9085 41.0793 18.3293 41.4695 17.6281C41.8598 16.9329 42.2683 16.1951 42.3781 15.9939C42.4878 15.7927 42.7073 15.3963 42.8659 15.1098C43.0244 14.8232 43.25 14.4146 43.372 14.1951C43.4878 13.9756 43.6341 13.7134 43.6951 13.6037C43.7561 13.4939 43.9024 13.2317 44.0183 13.0244C44.1341 12.811 44.8354 11.5427 45.5732 10.2073C46.3171 8.86585 46.9207 7.75 46.9207 7.71951C46.9207 7.69512 46.9512 7.67073 46.9817 7.67073C47.0183 7.67073 47.0427 7.64634 47.0427 7.60976C47.0427 7.57927 47.2988 7.09146 47.6098 6.53049C47.9268 5.96342 48.2866 5.31098 48.4146 5.07927C48.5427 4.84146 48.75 4.46342 48.8781 4.23781C49.0122 4.0061 49.1159 3.81098 49.1159 3.79878C49.1159 3.78659 49.1951 3.64024 49.2927 3.47561C49.4634 3.18902 49.622 2.90854 50.0366 2.13415C50.1463 1.94512 50.3476 1.57927 50.4878 1.32927C51.0488 0.329268 51.1829 0.054878 51.1402 0.0304878C51.1159 0.0182927 47.4939 0.0121951 43.0915 0.0121951L35.0854 0.0182927L35 0.170732C34.9512 0.256098 34.7561 0.652439 34.5671 1.05488C34.3781 1.45732 34.1098 2.01829 33.9756 2.30488C33.8415 2.59146 33.6281 3.04268 33.5061 3.31098C33.3781 3.57927 33.1463 4.07317 32.9878 4.40854C32.8293 4.7439 32.622 5.18293 32.5305 5.38415C32.439 5.58537 32.2134 6.06707 32.0244 6.45122C31.8415 6.83537 31.6037 7.34146 31.4939 7.57927C31.0061 8.62195 30.5732 9.54268 29.8537 11.0488C29.6159 11.5488 29.4207 11.9634 29.4207 11.9695C29.4207 11.9817 29.2134 12.4207 28.9573 12.9512C28.7012 13.4878 28.439 14.0427 28.372 14.1951C28.2988 14.3476 28.0793 14.811 27.878 15.2317C27.6829 15.6524 27.439 16.1646 27.3476 16.3659C27.25 16.5732 27.0549 16.9817 26.9146 17.2805C26.7744 17.5793 26.5427 18.0671 26.4024 18.372C26.2622 18.6707 26 19.2195 25.8232 19.5915C25.6463 19.9573 25.4268 20.4268 25.3354 20.6281C25.0366 21.2744 24.3049 22.8171 24.1951 23.0366C24.0488 23.3232 23.9024 23.3415 23.7927 23.0854C23.7439 22.9756 23.561 22.5793 23.3841 22.2134C22.8841 21.1524 22.6829 20.7317 22.378 20.0793C22.2195 19.7439 21.9878 19.25 21.8598 18.9817C21.7317 18.7134 21.5122 18.2439 21.372 17.9451C21.2317 17.6402 21.0244 17.2012 20.9146 16.9695C20.8049 16.7317 20.6037 16.311 20.4695 16.0244C19.9268 14.8659 19.7012 14.3902 19.5122 13.9817C19.2195 13.3598 18.8659 12.5976 18.5488 11.939C18.3963 11.622 18.1768 11.1463 18.0549 10.8841C17.9329 10.628 17.7378 10.2012 17.6159 9.93903C17.4939 9.68293 17.2866 9.23781 17.1524 8.95122C16.6037 7.79878 16.3476 7.2561 16.189 6.90854C16.0976 6.70732 15.878 6.23781 15.7012 5.87195C15.5244 5.5 15.3049 5.03049 15.2134 4.82927C15.1159 4.62195 14.9207 4.21342 14.7805 3.91463C14.6402 3.61585 14.1829 2.64634 13.7683 1.7561C13.3476 0.865854 12.9817 0.109756 12.9512 0.0670732C12.9024 0.0121951 11.3232 -1.50608e-08 6.53049 -1.50608e-08C3.03049 -1.50608e-08 0.134146 0.0243902 0.0914634 0.0487805Z" fill="#F4BB32"/>
<path d="M54.9024 0.0121986C54.9024 0.0182961 54.8902 0.0609791 54.8781 0.10976C54.8659 0.15854 54.7683 0.554882 54.6646 0.993906C54.5549 1.42683 54.4634 1.82927 54.4512 1.88415C54.439 1.93293 54.3902 2.15244 54.3354 2.37195C54.2073 2.90854 53.8659 4.32317 53.8415 4.45122C53.8293 4.5061 53.7378 4.90244 53.6342 5.33537C53.5305 5.7622 53.4329 6.17074 53.4207 6.23781C53.4085 6.30488 53.3415 6.57927 53.2683 6.84756C53.2012 7.11586 53.1342 7.40244 53.1159 7.48781C53.0793 7.65854 53.0793 7.65854 52.8963 8.43293C52.8232 8.73171 52.7561 9.02439 52.7439 9.07317C52.7317 9.12196 52.6524 9.46342 52.561 9.83537C52.4756 10.2012 52.3902 10.561 52.372 10.6281C52.3476 10.7683 52.122 11.7134 52.061 11.939C52.0122 12.1463 52.0305 12.061 51.7134 13.4207C51.5549 14.0793 51.4146 14.6585 51.4024 14.7012C51.3902 14.7378 51.3598 14.8415 51.3476 14.9268C51.3293 15.0122 51.2866 15.189 51.2561 15.3232C51.1402 15.7927 51.1342 15.9085 51.2256 16.1646C51.2927 16.3659 51.3842 16.4695 51.6159 16.622C51.7805 16.7317 51.9268 16.8171 51.939 16.8171C51.9695 16.8171 52.9939 17.3049 54.8781 18.2195C55.4512 18.4939 56.1342 18.8232 56.4024 18.9512C58.5488 19.9573 59.4146 20.4146 59.5976 20.6402C59.8781 20.9817 59.8598 21.25 59.5061 21.9207C59.2012 22.4939 57.5061 25.5671 57.4085 25.7195C57.3781 25.7683 57.2988 25.9085 57.2378 26.0244C57.0793 26.3293 56.7683 26.8963 56.4634 27.4268C56.3232 27.6768 56.1098 28.061 55.9939 28.2805C55.75 28.7195 55.7134 28.7927 54.8963 30.2622C54.5793 30.8293 54.2317 31.4573 54.1281 31.6463C54.0183 31.8415 53.8537 32.1463 53.7561 32.3171C53.6585 32.4939 53.1707 33.3781 52.6707 34.2866C52.1707 35.189 51.6524 36.122 51.5244 36.3598C51.3963 36.5915 51.2256 36.8963 51.1524 37.0305C51.0732 37.1646 50.8902 37.4939 50.7439 37.7622C50.3659 38.4634 48.5305 41.7805 48.0549 42.6281C47.8354 43.0244 47.6524 43.3598 47.6524 43.372C47.6524 43.3842 47.5305 43.6037 47.3781 43.8537C47.2256 44.1098 47.1037 44.3293 47.1037 44.3476C47.1037 44.3598 47.0061 44.5366 46.8902 44.7378C46.7744 44.9329 46.6768 45.122 46.6768 45.1524C46.6768 45.189 48.9329 45.2012 52.1524 45.1951C55.1585 45.1829 58.9512 45.1768 60.5793 45.1768C62.3293 45.1707 63.5732 45.1463 63.6281 45.1098C63.7073 45.061 63.7195 43.6829 63.7195 33.3598C63.7195 26.9268 63.7439 21.6281 63.7683 21.5854C63.8598 21.4451 64.0427 21.5122 64.25 21.7683C64.3598 21.9146 64.4756 22.061 64.5122 22.1037C64.5976 22.2073 64.6707 22.2988 64.8781 22.5793C64.9756 22.7134 65.0915 22.8659 65.1342 22.9146C65.1768 22.9634 65.5244 23.4146 65.9146 23.9207C66.3049 24.4207 66.689 24.9146 66.7683 25.0183C67.0244 25.3537 67.8659 26.4329 68.0183 26.6342C68.1037 26.7439 68.4878 27.2378 68.872 27.7317C69.2561 28.2256 70.2988 29.5732 71.189 30.7195C72.0793 31.8659 73.0305 33.0976 73.311 33.4573C73.9512 34.2805 74.0244 34.3781 75.2744 35.9939C75.8415 36.7317 76.3415 37.3781 76.3902 37.4268C76.4329 37.4756 76.6463 37.75 76.8659 38.0366C77.0793 38.3171 77.2866 38.5915 77.3293 38.6463C77.3659 38.6951 77.5183 38.8902 77.6646 39.0732C77.9268 39.4085 79.2439 41.1159 79.5549 41.5122C79.8537 41.9085 81.6098 44.1646 81.6585 44.2256C81.689 44.2561 81.8476 44.4634 82.0122 44.6829C82.1829 44.9024 82.3476 45.0976 82.3781 45.122C82.4146 45.1463 85.2134 45.1707 88.6098 45.1707C94.1342 45.1707 94.7866 45.1585 94.872 45.0732C94.9634 44.9878 94.9695 42.8659 94.9695 22.5915C94.9695 9.5 94.9451 0.164638 94.9146 0.115857C94.8659 0.0426864 93.9512 0.0304912 88.7378 0.0304912C85.3659 0.0304912 82.5793 0.0487839 82.5427 0.0731742C82.4878 0.103662 82.4695 2.94513 82.4695 11.8415C82.4695 22.189 82.4573 23.5793 82.3781 23.6463C82.2439 23.7561 82.122 23.6524 81.561 22.9146C81.2927 22.561 81.0488 22.2439 81.0183 22.2073C80.9878 22.1768 80.4878 21.5305 79.9024 20.7744C79.3232 20.0244 78.8171 19.3781 78.7805 19.3354C78.7073 19.2439 78.6951 19.2317 78.2012 18.5854C77.9817 18.2988 77.7744 18.0244 77.7317 17.9756C77.622 17.8354 75.2622 14.7927 75.0915 14.561C75.0061 14.4451 74.8293 14.2195 74.6951 14.0488C74.561 13.8781 74.2622 13.4878 74.0244 13.1829C73.7927 12.8781 73.1342 12.0244 72.561 11.2927C71.9939 10.561 71.4512 9.86586 71.3598 9.74391C71.1646 9.48171 69.9939 7.98171 69.8902 7.85366C69.8537 7.80488 69.6585 7.55488 69.4695 7.30488C69.2744 7.05488 68.9451 6.62805 68.7378 6.35366C68.5244 6.08537 68.2927 5.78049 68.2134 5.68293C68.1402 5.58537 67.8232 5.17683 67.5122 4.77439C67.1951 4.37195 66.2744 3.17683 65.4573 2.12195C64.6463 1.06708 63.9451 0.164638 63.9024 0.121955C63.8415 0.0548815 63.0122 0.0365888 59.3659 0.0243937C56.9146 0.0182961 54.9085 0.0121986 54.9024 0.0121986Z" fill="#F08E20"/>
</svg>
