<svg width="76" height="76" viewBox="0 0 76 76" fill="none" xmlns="http://www.w3.org/2000/svg">
<rect width="76" height="76" rx="15" fill="#3D3D3D"/>
<path d="M21.3335 27.9998C21.3335 26.4285 21.3335 25.6428 21.8216 25.1547C22.3098 24.6665 23.0955 24.6665 24.6668 24.6665C26.2382 24.6665 27.0238 24.6665 27.512 25.1547C28.0002 25.6428 28.0002 26.4285 28.0002 27.9998V31.3332C28.0002 32.9045 28.0002 33.6902 27.512 34.1784C27.0238 34.6665 26.2382 34.6665 24.6668 34.6665C23.0955 34.6665 22.3098 34.6665 21.8216 34.1784C21.3335 33.6902 21.3335 32.9045 21.3335 31.3332V27.9998Z" stroke="white" stroke-width="2"/>
<path d="M28.8335 44.6668C28.8335 43.0955 28.8335 42.3098 29.3216 41.8217C29.8098 41.3335 30.5955 41.3335 32.1668 41.3335C33.7382 41.3335 34.5238 41.3335 35.012 41.8217C35.5002 42.3098 35.5002 43.0955 35.5002 44.6668V48.0002C35.5002 49.5715 35.5002 50.3572 35.012 50.8453C34.5238 51.3335 33.7382 51.3335 32.1668 51.3335C30.5955 51.3335 29.8098 51.3335 29.3216 50.8453C28.8335 50.3572 28.8335 49.5715 28.8335 48.0002V44.6668Z" stroke="white" stroke-width="2"/>
<path d="M40.5 27.9998C40.5 26.4285 40.5 25.6428 40.9882 25.1547C41.4763 24.6665 42.262 24.6665 43.8333 24.6665C45.4047 24.6665 46.1903 24.6665 46.6785 25.1547C47.1667 25.6428 47.1667 26.4285 47.1667 27.9998V31.3332C47.1667 32.9045 47.1667 33.6902 46.6785 34.1784C46.1903 34.6665 45.4047 34.6665 43.8333 34.6665C42.262 34.6665 41.4763 34.6665 40.9882 34.1784C40.5 33.6902 40.5 32.9045 40.5 31.3332V27.9998Z" stroke="white" stroke-width="2"/>
<path d="M40.5 44.6668C40.5 43.0955 40.5 42.3098 40.9882 41.8217C41.4763 41.3335 42.262 41.3335 43.8333 41.3335C45.4047 41.3335 46.1903 41.3335 46.6785 41.8217C47.1667 42.3098 47.1667 43.0955 47.1667 44.6668V48.0002C47.1667 49.5715 47.1667 50.3572 46.6785 50.8453C46.1903 51.3335 45.4047 51.3335 43.8333 51.3335C42.262 51.3335 41.4763 51.3335 40.9882 50.8453C40.5 50.3572 40.5 49.5715 40.5 48.0002V44.6668Z" stroke="white" stroke-width="2"/>
<path d="M33 26.3332L35.5 24.6665V34.6665" stroke="white" stroke-width="2" stroke-linecap="round" stroke-linejoin="round"/>
<path d="M21.3335 43.0002L23.8335 41.3335V51.3335" stroke="white" stroke-width="2" stroke-linecap="round" stroke-linejoin="round"/>
<path d="M52.1665 26.3332L54.6665 24.6665V34.6665" stroke="white" stroke-width="2" stroke-linecap="round" stroke-linejoin="round"/>
<path d="M52.1665 43.0002L54.6665 41.3335V51.3335" stroke="white" stroke-width="2" stroke-linecap="round" stroke-linejoin="round"/>
</svg>
