<svg width="76" height="76" viewBox="0 0 76 76" fill="none" xmlns="http://www.w3.org/2000/svg">
<rect width="76" height="76" rx="15" fill="#3D3D3D"/>
<path d="M44.6665 39.6665C44.6665 41.0472 45.7858 42.1665 47.1665 42.1665C48.5472 42.1665 49.6665 41.0472 49.6665 39.6665C49.6665 38.2858 48.5472 37.1665 47.1665 37.1665C45.7858 37.1665 44.6665 38.2858 44.6665 39.6665Z" stroke="white" stroke-width="2"/>
<path d="M36.3335 49.6667H44.6668C49.3808 49.6667 51.7378 49.6667 53.2023 48.2022C54.6668 46.7377 54.6668 44.3807 54.6668 39.6667V38C54.6668 33.2859 54.6668 30.9289 53.2023 29.4645C52.1335 28.3956 50.5892 28.1069 48.0002 28.0289M48.0002 28.0289C47.0418 28 45.9403 28 44.6668 28H34.6668M48.0002 28.0289C48.0002 26.4486 48.0002 25.6585 47.7377 25.0368C47.4 24.2368 46.7633 23.6002 45.9633 23.2625C45.3417 23 44.5515 23 42.9713 23H34.6668C28.3814 23 25.2387 23 23.2861 24.9526C21.3335 26.9052 21.3335 28.3813 21.3335 34.6667" stroke="white" stroke-width="2" stroke-linecap="round"/>
<path d="M23.4063 47.5239H23.0532C21.9119 47.5239 21.3412 47.5239 21.098 47.1434C20.8547 46.763 21.0865 46.2329 21.55 45.1729L22.9436 41.9858C23.3651 41.022 23.5758 40.5401 23.9846 40.27C24.3934 40 24.9122 40 25.95 40H27.5572C28.8178 40 29.4481 40 29.6858 40.4164C29.9236 40.8328 29.6109 41.389 28.9855 42.5015L28.1609 43.9681C27.85 44.5212 27.6945 44.7977 27.6967 45.0241C27.6995 45.3182 27.8542 45.5893 28.1041 45.7377C28.2965 45.8519 28.6098 45.8519 29.2365 45.8519C30.0287 45.8519 30.4248 45.8519 30.6311 45.9906C30.8991 46.1707 31.0395 46.493 30.9903 46.8158C30.9525 47.0642 30.686 47.3621 30.1531 47.958L25.8953 52.7184C25.059 53.6535 24.6408 54.121 24.36 53.9731C24.0792 53.8251 24.2141 53.2084 24.4838 51.9748L25.0121 49.5586C25.2174 48.6193 25.3201 48.1497 25.0731 47.8368C24.8262 47.5239 24.3529 47.5239 23.4063 47.5239Z" stroke="white" stroke-width="1.5" stroke-linejoin="round"/>
</svg>
