<svg width="76" height="76" viewBox="0 0 76 76" fill="none" xmlns="http://www.w3.org/2000/svg">
<rect width="76" height="76" rx="15" fill="#3D3D3D"/>
<path d="M24.6665 38.0001C24.6665 31.7147 24.6665 28.572 26.6191 26.6194C28.5718 24.6667 31.7144 24.6667 37.9998 24.6667C44.2852 24.6667 47.428 24.6667 49.3805 26.6194C51.3332 28.572 51.3332 31.7147 51.3332 38.0001C51.3332 44.2854 51.3332 47.4282 49.3805 49.3807C47.428 51.3334 44.2852 51.3334 37.9998 51.3334C31.7144 51.3334 28.5718 51.3334 26.6191 49.3807C24.6665 47.4282 24.6665 44.2854 24.6665 38.0001Z" stroke="white" stroke-width="2" stroke-linejoin="round"/>
<path d="M34.875 43V33M38 33V30.5M38 45.5V43M34.875 38H41.125M41.125 38C42.1605 38 43 38.8395 43 39.875V41.125C43 42.1605 42.1605 43 41.125 43H33M41.125 38C42.1605 38 43 37.1605 43 36.125V34.875C43 33.8395 42.1605 33 41.125 33H33" stroke="white" stroke-width="2" stroke-linecap="round" stroke-linejoin="round"/>
<path d="M31.3335 21.3333V24.6666M44.6668 21.3333V24.6666M38.0002 21.3333V24.6666M31.3335 51.3333V54.6666M38.0002 51.3333V54.6666M44.6668 51.3333V54.6666M54.6668 44.6666H51.3335M24.6668 31.3333H21.3335M24.6668 44.6666H21.3335M24.6668 37.9999H21.3335M54.6668 31.3333H51.3335M54.6668 37.9999H51.3335" stroke="white" stroke-width="2" stroke-linecap="round" stroke-linejoin="round"/>
</svg>
