<svg width="48" height="48" viewBox="0 0 48 48" fill="none" xmlns="http://www.w3.org/2000/svg">
<circle cx="24" cy="24" r="24" fill="white"/>
<path d="M31.7453 25C32.5362 23.8662 33 22.4872 33 21C33 17.134 29.866 14 26 14C22.134 14 19 17.134 19 21C19 22.0736 19.2417 23.0907 19.6736 24" stroke="black" stroke-width="1.5" stroke-linecap="round" stroke-linejoin="round"/>
<path d="M26 18C24.8954 18 24 18.6716 24 19.5C24 20.3284 24.8954 21 26 21C27.1046 21 28 21.6716 28 22.5C28 23.3284 27.1046 24 26 24M26 18C26.8708 18 27.6116 18.4174 27.8862 19M26 18V17M26 24C25.1292 24 24.3884 23.5826 24.1138 23M26 24V25" stroke="black" stroke-width="1.5" stroke-linecap="round"/>
<path d="M15 26H17.3948C17.689 26 17.9791 26.0663 18.2422 26.1936L20.2842 27.1816C20.5472 27.3089 20.8374 27.3751 21.1315 27.3751H22.1741C23.1825 27.3751 24 28.1662 24 29.142C24 29.1814 23.973 29.2161 23.9338 29.2269L21.3929 29.9295C20.9371 30.0555 20.449 30.0116 20.025 29.8064L17.8421 28.7503M24 28.5L28.5928 27.0889C29.407 26.8352 30.2871 27.136 30.7971 27.8423C31.1659 28.3529 31.0157 29.0842 30.4785 29.3942L22.9629 33.7305C22.4849 34.0063 21.9209 34.0736 21.3952 33.9176L15 32.0199" stroke="black" stroke-width="1.5" stroke-linecap="round" stroke-linejoin="round"/>
</svg>
