<svg width="40" height="40" viewBox="0 0 40 40" fill="none" xmlns="http://www.w3.org/2000/svg">
<path d="M28.3333 19.6742C28.3333 19.098 28.3333 18.81 28.42 18.5533C28.672 17.8073 29.3363 17.518 30.0018 17.2148C30.75 16.874 31.124 16.7037 31.4946 16.6737C31.9155 16.6396 32.337 16.7303 32.6966 16.9322C33.1735 17.1997 33.506 17.7082 33.8465 18.1217C35.4188 20.0313 36.2048 20.9863 36.4925 22.0393C36.7246 22.889 36.7246 23.7777 36.4925 24.6273C36.073 26.1632 34.7475 27.4507 33.7663 28.6423C33.2645 29.2518 33.0135 29.5567 32.6966 29.7345C32.337 29.9363 31.9155 30.027 31.4946 29.993C31.124 29.963 30.75 29.7927 30.0018 29.4518C29.3363 29.1487 28.672 28.8593 28.42 28.1133C28.3333 27.8567 28.3333 27.5687 28.3333 26.9925V19.6742Z" stroke="white" stroke-width="2"/>
<path d="M11.6666 19.6743C11.6666 18.949 11.6463 18.297 11.0598 17.787C10.8465 17.6015 10.5637 17.4727 9.99816 17.215C9.25 16.8743 8.87591 16.704 8.50525 16.674C7.39316 16.584 6.79485 17.343 6.15353 18.122C4.58123 20.0317 3.79508 20.9865 3.50741 22.0395C3.27528 22.8893 3.27528 23.778 3.50741 24.6277C3.92698 26.1635 5.25251 27.4508 6.23366 28.6427C6.85213 29.3938 7.44293 30.0792 8.50525 29.9933C8.87591 29.9633 9.25 29.7928 9.99816 29.4522C10.5637 29.1945 10.8465 29.0657 11.0598 28.8802C11.6463 28.3702 11.6666 27.7183 11.6666 26.9928V19.6743Z" stroke="white" stroke-width="2"/>
<path d="M33.3334 17.5V15C33.3334 8.55668 27.3639 3.33333 20 3.33333C12.6362 3.33333 6.66669 8.55668 6.66669 15V17.5" stroke="white" stroke-width="2" stroke-linecap="round" stroke-linejoin="round"/>
<path d="M33.3333 29.1667C33.3333 36.6667 26.6667 36.6667 20 36.6667" stroke="white" stroke-width="2" stroke-linecap="round" stroke-linejoin="round"/>
</svg>
