<svg width="48" height="48" viewBox="0 0 48 48" fill="none" xmlns="http://www.w3.org/2000/svg">
<circle cx="24" cy="24" r="24" fill="white"/>
<path d="M23.9998 19C21.2383 19 18.9998 21.2386 18.9998 24C18.9998 26.7614 21.2383 29 23.9998 29C26.7612 29 28.9998 26.7614 28.9998 24C28.9998 21.2386 26.7612 19 23.9998 19Z" stroke="black" stroke-width="1.5" stroke-linecap="round" stroke-linejoin="round"/>
<path d="M33.2632 14.7366L29.4998 18.5M33.2632 14.7366C33.7028 15.1762 33.4165 16.9785 33.3032 18M33.2632 14.7366C32.8236 14.297 31.0213 14.5833 29.9998 14.6966" stroke="black" stroke-width="1.5" stroke-linecap="round" stroke-linejoin="round"/>
<path d="M14.7364 33.2634L18.4998 29.5M14.7364 33.2634C15.176 33.703 16.9783 33.4167 17.9998 33.3034M14.7364 33.2634C14.2968 32.8238 14.5831 31.0215 14.6964 30" stroke="black" stroke-width="1.5" stroke-linecap="round" stroke-linejoin="round"/>
<path d="M33.2632 33.2634L29.4998 29.5M33.2632 33.2634C32.8236 33.703 31.0213 33.4167 29.9998 33.3034M33.2632 33.2634C33.7028 32.8238 33.4165 31.0215 33.3032 30" stroke="black" stroke-width="1.5" stroke-linecap="round" stroke-linejoin="round"/>
<path d="M14.7364 14.7366L18.4998 18.5M14.7364 14.7366C14.2968 15.1762 14.5831 16.9785 14.6964 18M14.7364 14.7366C15.176 14.297 16.9783 14.5833 17.9998 14.6966" stroke="black" stroke-width="1.5" stroke-linecap="round" stroke-linejoin="round"/>
</svg>
