<svg width="40" height="40" viewBox="0 0 40 40" fill="none" xmlns="http://www.w3.org/2000/svg">
<path d="M15 3.33334V8.33334" stroke="white" stroke-width="2" stroke-linecap="round" stroke-linejoin="round"/>
<path d="M25 3.33334V8.33334" stroke="white" stroke-width="2" stroke-linecap="round" stroke-linejoin="round"/>
<path d="M20 30V36.6667" stroke="white" stroke-width="2" stroke-linecap="round" stroke-linejoin="round"/>
<path d="M21.1565 14.1667L17.6715 17.7915C17.298 18.1798 17.5656 18.7388 18.1746 18.8422L21.8253 19.4622C22.4746 19.5723 22.7223 20.1912 22.2683 20.5688L17.9443 24.1667" stroke="white" stroke-width="2" stroke-linecap="round" stroke-linejoin="round"/>
<path d="M23.8444 8.33334H16.1557C12.5919 8.33334 10.8099 8.33334 9.82547 9.49624C8.84102 10.6591 9.11197 12.444 9.65389 16.0137L10.5268 21.7635C11.3935 27.4727 13.8098 30 20 30C26.1902 30 28.6065 27.4727 29.4734 21.7635L30.3462 16.0137C30.888 12.444 31.159 10.6591 30.1745 9.49624C29.1902 8.33334 27.4082 8.33334 23.8444 8.33334Z" stroke="white" stroke-width="2"/>
</svg>
