<svg width="40" height="40" viewBox="0 0 40 40" fill="none" xmlns="http://www.w3.org/2000/svg">
<path d="M24.1666 11.6667H15.8333C10.3542 11.6667 7.61461 11.6667 5.7707 13.1799C5.43313 13.457 5.12361 13.7665 4.84658 14.1041C3.33331 15.948 3.33331 18.6875 3.33331 24.1667C3.33331 29.6458 3.33331 32.3853 4.84658 34.2293C5.12361 34.5668 5.43313 34.8763 5.7707 35.1533C7.61461 36.6667 10.3542 36.6667 15.8333 36.6667H24.1666C29.6458 36.6667 32.3853 36.6667 34.2293 35.1533C34.5668 34.8763 34.8763 34.5668 35.1533 34.2293C36.6666 32.3853 36.6666 29.6458 36.6666 24.1667C36.6666 18.6875 36.6666 15.948 35.1533 14.1041C34.8763 13.7665 34.5668 13.457 34.2293 13.1799C32.3853 11.6667 29.6458 11.6667 24.1666 11.6667Z" stroke="white" stroke-width="2" stroke-linecap="round"/>
<path d="M20 11.6667V8.33333C20 7.41287 20.7462 6.66667 21.6667 6.66667C22.5872 6.66667 23.3333 5.92047 23.3333 5V3.33333" stroke="white" stroke-width="2" stroke-linecap="round" stroke-linejoin="round"/>
<path d="M11.6667 20H13.3334" stroke="white" stroke-width="2" stroke-linecap="round" stroke-linejoin="round"/>
<path d="M19.1667 20H20.8334" stroke="white" stroke-width="2" stroke-linecap="round" stroke-linejoin="round"/>
<path d="M26.6667 20H28.3334" stroke="white" stroke-width="2" stroke-linecap="round" stroke-linejoin="round"/>
<path d="M11.6667 28.3333H28.3334" stroke="white" stroke-width="2" stroke-linecap="round" stroke-linejoin="round"/>
</svg>
