<svg width="40" height="40" viewBox="0 0 40 40" fill="none" xmlns="http://www.w3.org/2000/svg">
<path d="M33.3334 23.3333V16.6667C33.3334 10.3813 33.3334 7.23858 31.4955 5.28595C29.6579 3.33333 26.7 3.33333 20.7844 3.33333H19.2157C13.3 3.33333 10.3422 3.33333 8.50445 5.28595C6.66669 7.23858 6.66669 10.3813 6.66669 16.6667V23.3333C6.66669 29.6187 6.66669 32.7615 8.50445 34.714C10.3422 36.6667 13.3 36.6667 19.2157 36.6667H20.7844C26.7 36.6667 29.6579 36.6667 31.4955 34.714C33.3334 32.7615 33.3334 29.6187 33.3334 23.3333Z" stroke="white" stroke-width="2" stroke-linecap="round"/>
<path d="M26.6667 30H26.6817" stroke="white" stroke-width="2" stroke-linecap="round" stroke-linejoin="round"/>
<path d="M6.66669 25H33.3334" stroke="white" stroke-width="2" stroke-linejoin="round"/>
<path d="M13.3333 10H16.6666" stroke="white" stroke-width="2" stroke-linecap="round" stroke-linejoin="round"/>
<path d="M13.3333 15H16.6666" stroke="white" stroke-width="2" stroke-linecap="round" stroke-linejoin="round"/>
</svg>
