<svg width="76" height="76" viewBox="0 0 76 76" fill="none" xmlns="http://www.w3.org/2000/svg">
<rect width="76" height="76" rx="15" fill="black"/>
<path d="M19.0976 25.1951C22.4652 25.1951 25.1951 22.4652 25.1951 19.0976C25.1951 15.73 22.4652 13 19.0976 13C15.73 13 13 15.73 13 19.0976C13 22.4652 15.73 25.1951 19.0976 25.1951Z" fill="#404040"/>
<path d="M19.0976 63C22.4652 63 25.1951 60.27 25.1951 56.9024C25.1951 53.5348 22.4652 50.8049 19.0976 50.8049C15.73 50.8049 13 53.5348 13 56.9024C13 60.27 15.73 63 19.0976 63Z" fill="#404040"/>
<path d="M19.0976 43.4878C22.4652 43.4878 25.1951 41.0308 25.1951 38C25.1951 34.9692 22.4652 32.5122 19.0976 32.5122C15.73 32.5122 13 34.9692 13 38C13 41.0308 15.73 43.4878 19.0976 43.4878Z" fill="white"/>
<path d="M38.6098 25.1951C41.9774 25.1951 44.7073 22.4652 44.7073 19.0976C44.7073 15.73 41.9774 13 38.6098 13C35.2422 13 32.5122 15.73 32.5122 19.0976C32.5122 22.4652 35.2422 25.1951 38.6098 25.1951Z" fill="#404040"/>
<path d="M38.6098 63C41.9774 63 44.7073 60.27 44.7073 56.9024C44.7073 53.5348 41.9774 50.8049 38.6098 50.8049C35.2422 50.8049 32.5122 53.5348 32.5122 56.9024C32.5122 60.27 35.2422 63 38.6098 63Z" fill="white"/>
<path d="M38.6098 43.4878C41.9774 43.4878 44.7073 41.0308 44.7073 38C44.7073 34.9692 41.9774 32.5122 38.6098 32.5122C35.2422 32.5122 32.5122 34.9692 32.5122 38C32.5122 41.0308 35.2422 43.4878 38.6098 43.4878Z" fill="white"/>
<path d="M58.122 25.1951C61.4896 25.1951 64.2195 22.4652 64.2195 19.0976C64.2195 15.73 61.4896 13 58.122 13C54.7544 13 52.0244 15.73 52.0244 19.0976C52.0244 22.4652 54.7544 25.1951 58.122 25.1951Z" fill="#404040"/>
<path d="M58.122 63C61.4896 63 64.2195 60.27 64.2195 56.9024C64.2195 53.5348 61.4896 50.8049 58.122 50.8049C54.7544 50.8049 52.0244 53.5348 52.0244 56.9024C52.0244 60.27 54.7544 63 58.122 63Z" fill="#404040"/>
<path d="M58.122 43.4878C61.4896 43.4878 64.2195 41.0308 64.2195 38C64.2195 34.9692 61.4896 32.5122 58.122 32.5122C54.7544 32.5122 52.0244 34.9692 52.0244 38C52.0244 41.0308 54.7544 43.4878 58.122 43.4878Z" fill="white"/>
</svg>
