<svg width="48" height="48" viewBox="0 0 48 48" fill="none" xmlns="http://www.w3.org/2000/svg">
<circle cx="24" cy="24" r="24" fill="white"/>
<g clip-path="url(#clip0_143_20)">
<path fill-rule="evenodd" clip-rule="evenodd" d="M23.0887 14.2584C23.2866 14.2584 23.4468 14.1025 23.4468 13.9099V12.3484C23.4468 12.1558 23.2866 12 23.0892 12C22.8912 12 22.7311 12.1558 22.7311 12.3484V13.9094C22.7311 14.102 22.8912 14.2579 23.0892 14.2579L23.0887 14.2584Z" fill="black" stroke="black" stroke-width="0.6"/>
<path fill-rule="evenodd" clip-rule="evenodd" d="M30.7433 17.8556C30.8007 17.8556 30.8593 17.8421 30.913 17.8137L32.3982 17.0329C32.5722 16.9413 32.6371 16.73 32.5429 16.5607C32.4493 16.3914 32.2316 16.3283 32.0576 16.4199L30.5725 17.2007C30.3984 17.2923 30.3335 17.5035 30.4277 17.6728C30.4926 17.7893 30.6161 17.8556 30.7433 17.8556Z" fill="black" stroke="black" stroke-width="0.6"/>
<path fill-rule="evenodd" clip-rule="evenodd" d="M32.6414 26.4909C32.768 26.4909 32.892 26.4247 32.9569 26.3087C33.0511 26.1394 32.9862 25.9282 32.8122 25.8365L31.3323 25.0558C31.1583 24.9641 30.9412 25.0268 30.8465 25.1961C30.7523 25.3654 30.8172 25.5766 30.9912 25.6683L32.4705 26.449C32.5254 26.4775 32.5834 26.4909 32.6414 26.4909Z" fill="black" stroke="black" stroke-width="0.6"/>
<path fill-rule="evenodd" clip-rule="evenodd" d="M14.7769 27.1454C14.8344 27.1454 14.8929 27.1319 14.9467 27.1035L16.4313 26.3227C16.6058 26.2311 16.6707 26.0198 16.576 25.8505C16.4818 25.6812 16.2647 25.6181 16.0907 25.7097L14.6061 26.4905C14.4321 26.5821 14.3672 26.7933 14.4614 26.9626C14.5263 27.0791 14.6497 27.1454 14.7769 27.1454Z" fill="black" stroke="black" stroke-width="0.6"/>
<path fill-rule="evenodd" clip-rule="evenodd" d="M15.8427 18.5152C15.9699 18.5152 16.0939 18.4489 16.1583 18.3324C16.2524 18.1631 16.1875 17.9519 16.0135 17.8603L14.5278 17.0795C14.3538 16.9879 14.1367 17.051 14.0431 17.2203C13.9489 17.3896 14.0138 17.6009 14.1878 17.6925L15.673 18.4733C15.7272 18.5017 15.7852 18.5152 15.8427 18.5152Z" fill="black" stroke="black" stroke-width="0.6"/>
<path fill-rule="evenodd" clip-rule="evenodd" d="M25.8743 20.9734C26.0723 20.9734 26.2325 20.8176 26.2325 20.625V18.4525C26.2325 18.0166 26.597 17.6614 27.0455 17.6614H27.3547C27.8028 17.6614 28.1678 18.0161 28.1678 18.4525V20.6245C28.1678 20.8171 28.328 20.9729 28.5259 20.9729C28.7239 20.9729 28.884 20.8171 28.884 20.6245V18.452C28.884 17.6314 28.1981 16.9641 27.3547 16.9641H27.0455C26.2021 16.9641 25.5168 17.6314 25.5168 18.452V20.6239C25.5168 20.8165 25.6769 20.9724 25.8749 20.9724L25.8743 20.9734Z" fill="black" stroke="black" stroke-width="0.6"/>
<path fill-rule="evenodd" clip-rule="evenodd" d="M29.4922 23.5528C29.6896 23.5528 29.8503 23.397 29.8503 23.2044V21.3908C29.8503 20.7762 29.3363 20.2761 28.7052 20.2761H23.5026C22.8295 20.2761 22.2825 20.8088 22.2825 21.4632C22.2825 22.0053 22.507 22.5365 22.8981 22.9238C22.9285 22.9585 22.9599 22.989 22.9966 23.0185C23.3925 23.3597 23.8991 23.5476 24.4248 23.5476H25.7003C25.8983 23.5476 26.0584 23.3918 26.0584 23.1992C26.0584 23.0066 25.8983 22.8508 25.7003 22.8508H24.4248C24.072 22.8508 23.7325 22.7239 23.4675 22.4935C23.4622 22.4894 23.4579 22.4853 23.4526 22.4811C23.4484 22.478 23.4468 22.4764 23.4436 22.4723C23.4351 22.4625 23.4265 22.4526 23.417 22.4438C23.1509 22.185 22.9987 21.8277 22.9987 21.4638C22.9987 21.1935 23.2249 20.9735 23.5026 20.9735H28.7052C28.9415 20.9735 29.1341 21.1609 29.1341 21.3913V23.2044C29.1341 23.397 29.2943 23.5528 29.4922 23.5528Z" fill="black" stroke="black" stroke-width="0.6"/>
<path fill-rule="evenodd" clip-rule="evenodd" d="M23.2281 21.0169C23.4255 21.0169 23.5862 20.8611 23.5862 20.6685V18.4769C23.5862 18.0275 23.9619 17.662 24.4243 17.662H24.6782C25.14 17.662 25.5162 18.0275 25.5162 18.4774V20.6255C25.5162 20.8181 25.6764 20.9739 25.8744 20.9739C26.0718 20.9739 26.2325 20.8181 26.2325 20.6255V18.4774C26.2325 17.6438 25.5354 16.9651 24.6782 16.9651H24.4243C23.5671 16.9651 22.87 17.6433 22.87 18.4774V20.669C22.87 20.8616 23.0302 21.0174 23.2281 21.0174V21.0169Z" fill="black" stroke="black" stroke-width="0.6"/>
<path fill-rule="evenodd" clip-rule="evenodd" d="M21.9074 24.4107C22.8333 24.4107 23.5862 23.676 23.5862 22.7726V22.7534C23.5862 22.5608 23.4261 22.405 23.2281 22.405C23.0302 22.405 22.87 22.5608 22.87 22.7534V22.7726C22.87 23.2913 22.4379 23.7138 21.9074 23.7138C21.3737 23.7138 20.94 23.2939 20.94 22.7772V18.6074C20.94 18.0886 21.3737 17.6661 21.9074 17.6661C22.4406 17.6661 22.8753 18.0881 22.8753 18.6074V20.6726C22.8753 20.8652 23.0355 21.0211 23.2334 21.0211C23.4309 21.0211 23.5916 20.8652 23.5916 20.6726V18.6074C23.5916 17.7039 22.8359 16.9692 21.9074 16.9692C20.9788 16.9692 20.2237 17.7039 20.2237 18.6074V22.7772C20.2237 23.6781 20.9788 24.4107 21.9074 24.4107Z" fill="black" stroke="black" stroke-width="0.6"/>
<path fill-rule="evenodd" clip-rule="evenodd" d="M19.4362 18.5199C19.6479 18.5199 19.8464 18.6002 19.9949 18.7462C20.1412 18.8896 20.221 19.0791 20.2194 19.2789V22.0892C20.2194 22.5091 19.8682 22.8508 19.4367 22.8508H19.0727C18.6406 22.8508 18.29 22.5091 18.29 22.0892V19.282C18.29 18.8621 18.6412 18.5204 19.0727 18.5204H19.4362V18.5199ZM19.0727 23.5477H19.4362C20.2631 23.5477 20.9357 22.8932 20.9357 22.0892V19.282C20.9389 18.8973 20.7856 18.5318 20.5041 18.2559C20.2194 17.9768 19.8406 17.8235 19.4367 17.8235H19.0727C18.2458 17.8235 17.5737 18.478 17.5737 19.2825V22.0897C17.5737 22.8943 18.2463 23.5487 19.0727 23.5482V23.5477Z" fill="black" stroke="black" stroke-width="0.6"/>
<path fill-rule="evenodd" clip-rule="evenodd" d="M20.8963 29.0703H26.5272C28.3593 29.0703 29.8503 27.6202 29.8503 25.8371V22.3413C29.8503 22.1487 29.6902 21.9929 29.4922 21.9929C29.2943 21.9929 29.1341 22.1487 29.1341 22.3413V25.8371C29.1341 27.2355 27.9645 28.3735 26.5272 28.3735H20.8963C19.459 28.3735 18.2894 27.2355 18.2894 25.8371V22.4811C18.3086 22.4381 18.3192 22.391 18.3192 22.3413C18.3192 22.1487 18.1591 21.9929 17.9611 21.9929H17.9313C17.7339 21.9929 17.5732 22.1487 17.5732 22.3413V25.8371C17.5732 27.6202 19.0642 29.0703 20.8963 29.0703Z" fill="black" stroke="black" stroke-width="0.6"/>
<path fill-rule="evenodd" clip-rule="evenodd" d="M20.5526 22.6897H20.5824C20.7798 22.6897 20.9405 22.5339 20.9405 22.3413C20.9405 22.1487 20.7803 21.9929 20.5824 21.9929H20.5526C20.3552 21.9929 20.1945 22.1487 20.1945 22.3413C20.1945 22.5339 20.3546 22.6897 20.5526 22.6897Z" fill="black" stroke="black" stroke-width="0.6"/>
<path fill-rule="evenodd" clip-rule="evenodd" d="M24.5744 25.88C24.7436 25.88 24.8937 25.763 24.9261 25.5953C25.3156 23.5663 26.8465 22.6483 26.862 22.6395C27.0312 22.5401 27.086 22.3263 26.9838 22.1611C26.8817 21.9965 26.6614 21.9431 26.4922 22.0425C26.4177 22.086 24.6702 23.1345 24.2221 25.4674C24.1854 25.6564 24.3142 25.8386 24.5084 25.8738C24.5307 25.878 24.5526 25.88 24.5744 25.88Z" fill="black" stroke="black" stroke-width="0.6"/>
<path fill-rule="evenodd" clip-rule="evenodd" d="M29.1096 31.2774H18.3134C18.489 30.0323 19.5889 29.0703 20.916 29.0703H26.507C27.8341 29.0703 28.9346 30.0328 29.1096 31.2774ZM17.9308 31.9743H29.4922C29.6896 31.9743 29.8503 31.8185 29.8503 31.6259C29.8503 29.8324 28.3508 28.3729 26.507 28.3729H20.916C19.0727 28.3729 17.5732 29.8319 17.5732 31.6259C17.5732 31.8185 17.7334 31.9743 17.9313 31.9743H17.9308Z" fill="black" stroke="black" stroke-width="0.6"/>
<path fill-rule="evenodd" clip-rule="evenodd" d="M29.1341 34.3031H18.2894V31.9749H29.1341V34.3031ZM17.9313 35H29.4922C29.6896 35 29.8503 34.8442 29.8503 34.6516V31.6259C29.8503 31.4333 29.6902 31.2775 29.4922 31.2775H17.9308C17.7334 31.2775 17.5727 31.4333 17.5727 31.6259V34.6516C17.5727 34.8442 17.7328 35 17.9308 35H17.9313Z" fill="black" stroke="black" stroke-width="0.6"/>
</g>
<defs>
<clipPath id="clip0_143_20">
<rect width="19" height="23" fill="white" transform="matrix(-1 0 0 1 33 12)"/>
</clipPath>
</defs>
</svg>
