<svg width="174" height="30" viewBox="0 0 174 30" fill="none" xmlns="http://www.w3.org/2000/svg">
<path d="M115.921 4.40633C113.146 1.46394 109.683 0 105.532 0C101.381 0 97.8824 1.46394 95.1321 4.40633C92.425 7.27986 91.0786 10.8238 91.0714 15.0344C91.0714 19.2415 92.425 22.7672 95.1321 25.6154C97.886 28.5397 101.353 30 105.532 30C109.712 30 113.185 28.5505 115.961 25.6516C118.65 22.8071 120 19.2668 120 15.0344C120 10.802 118.639 7.30161 115.921 4.40633Z" fill="#F08E20"/>
<path d="M113.525 13.5883C113.303 15.1797 112.391 15.9273 111.19 16.1303C112.85 16.9669 113.699 18.2272 112.88 20.4132C112.176 22.3784 110.737 23.0406 108.802 23.0406C108.065 23.0406 107.249 22.9409 106.386 22.7843L105.652 25.7143L103.798 25.2621L104.554 22.3855C104.084 22.268 103.579 22.147 103.079 22.0295L102.323 24.9346L100.477 24.4825L101.233 21.5489C100.792 21.4136 100.351 21.3246 99.9095 21.2071L97.5 20.6375L98.4119 18.6295C98.4119 18.6295 99.7872 18.9962 99.7612 18.9642C100.113 19.071 100.492 18.8823 100.61 18.5476L102.649 10.6369C102.708 10.1314 102.33 9.67921 101.8 9.61869C101.8 9.5724 100.451 9.28403 100.451 9.28403L100.951 7.39357L103.494 7.99524C103.902 8.08425 104.276 8.17325 104.684 8.26226L105.433 5.35714L107.286 5.80573L106.538 8.65388C107.042 8.78204 107.542 8.87105 108.013 8.98853L108.721 6.17955L110.574 6.62457L109.822 9.54748C112.142 10.2951 113.881 11.4664 113.525 13.5919" fill="white"/>
<path d="M144.664 3.61855C142.899 2.3432 140.456 1.55506 137.333 1.25055C136.131 1.13233 133.503 1.07143 129.445 1.07143H124.535C124.396 1.07143 124.286 1.18248 124.286 1.31862V28.685C124.286 28.8175 124.389 28.9286 124.525 28.9286H130.686C134.127 28.9286 136.231 28.9178 136.994 28.8927C140.973 28.7602 144.061 27.4204 146.265 24.8697C148.725 22.104 150.055 18.5144 149.998 14.8137C149.998 12.6642 149.524 10.5398 148.615 8.59099C147.77 6.6099 146.4 4.89032 144.664 3.61855ZM140.574 20.4811C139.269 21.9965 137.479 22.7524 135.208 22.7524H132.305C132.159 22.7524 132.045 22.6342 132.045 22.4909V7.43386C132.045 7.29056 132.162 7.17234 132.305 7.17234H135.086C137.301 7.17234 139.08 7.90316 140.424 9.3648C141.765 10.7727 142.435 12.589 142.435 14.8173C142.417 17.1602 141.797 19.0482 140.574 20.4811Z" fill="#F08E20"/>
<path d="M162.003 22.314V18.0418C162.003 17.9342 162.095 17.8481 162.21 17.8481H173.072C173.184 17.8481 173.276 17.7692 173.28 17.6652V11.6497C173.28 11.5457 173.191 11.4596 173.08 11.4596H162.21C162.099 11.4596 162.007 11.3735 162.003 11.2659V7.39901C162.003 7.2914 162.095 7.20531 162.21 7.20531H173.568V1.07143H153.464C153.349 1.07143 153.257 1.15752 153.257 1.26513L153.214 28.7385C153.214 28.8425 153.306 28.9286 153.422 28.9286H173.571V22.5041H162.21C162.099 22.5041 162.007 22.4216 162.003 22.3176" fill="#F08E20"/>
<path d="M30.9399 1.07143H22.8797C22.8383 1.07143 22.797 1.09646 22.782 1.13221L15.7068 15.3299C15.6805 15.3799 15.6128 15.4014 15.5601 15.3728C15.5414 15.362 15.5226 15.3477 15.515 15.3299L8.45113 1.14651C8.43233 1.11076 8.39474 1.08573 8.35338 1.08573H0.131579C0.0714287 1.08573 0.0225562 1.12863 0.0225562 1.18584C0.0225562 2.95205 0 27.4717 0 28.8518C0 29.0627 0.0338347 28.7624 0.0977444 28.8518C0.161654 28.9376 7.07895 28.8518 8.01504 28.8518C8.07143 28.8518 8.11654 28.8089 8.11654 28.7553V16.1236C8.11654 16.07 8.16165 16.0235 8.21804 16.0199C8.2594 16.0199 8.30075 16.0414 8.31579 16.0771L15.391 28.6623C15.4173 28.7123 15.4812 28.7338 15.5338 28.7088C15.5564 28.698 15.5714 28.6837 15.5827 28.6623L22.3421 15.716C22.3684 15.6659 22.4323 15.6445 22.485 15.6695C22.5226 15.6874 22.5451 15.7232 22.5451 15.7625V28.7374C22.5451 28.7946 22.594 28.8375 22.6504 28.8375H30.9624C31.0226 28.8375 31.0714 28.7946 31.0714 28.7374L31.0489 1.17869C31.0489 1.12148 31 1.075 30.9399 1.075" fill="#F4BB32"/>
<path d="M109.286 18.6773C109.286 18.8112 109.265 18.952 109.219 19.103C108.588 21.2145 104.261 20.0849 102.857 19.8L103.983 16.0714C105.291 16.3152 109.286 16.8302 109.286 18.6739" fill="#F08E20"/>
<path d="M109.282 12.1765C109.282 12.3179 109.266 12.4746 109.23 12.6351C108.756 14.7598 105.918 13.6936 105 13.407L105.816 9.64286C106.661 9.8989 109.286 10.3422 109.286 12.1765" fill="#F08E20"/>
<path d="M79.8524 1.21129V15.5056C79.8524 15.581 79.7855 15.6419 79.7075 15.6419C79.6666 15.6419 79.6257 15.624 79.5997 15.5917L67.9197 1.12881C67.8936 1.09653 67.8565 1.07501 67.8119 1.07501H61.8399C61.6281 1.07501 61.4423 1.21487 61.3903 1.41211L58.2018 12.045C58.1534 12.3032 58.2835 12.5578 58.5213 12.6834L63.3487 15.1972C63.7872 15.4268 63.8987 15.7244 63.7203 16.0651L55.7602 28.4803C55.671 28.6202 55.7156 28.7995 55.8605 28.8855C55.9089 28.9142 55.9646 28.9286 56.0203 28.9286H67.8788C67.9605 28.9286 68.0237 28.8676 68.0237 28.7887V14.7382C68.0237 14.6629 68.0832 14.6019 68.1612 14.5984C68.2058 14.5984 68.2504 14.6163 68.2764 14.6521L79.7409 28.8676C79.7669 28.8999 79.8078 28.9214 79.8524 28.9214H87.7159C87.794 28.9214 87.8571 28.8604 87.8571 28.7815V1.21129C87.8571 1.13239 87.794 1.07143 87.7159 1.07143H79.9862C79.9082 1.07143 79.845 1.13239 79.845 1.20412" fill="#F08E20"/>
<path d="M55.5339 19.4504L50.593 16.9365C50.2507 16.8218 50.0757 16.4667 50.1974 16.1476C50.2088 16.1189 50.2202 16.0938 50.2354 16.0687L59.9917 1.16467C60.0107 1.13239 59.9955 1.09295 59.9613 1.0786C59.9537 1.07501 59.9423 1.07143 59.9309 1.07143H50.0605C50.0263 1.07143 49.9958 1.1037 49.9958 1.13598V7.58028C49.9958 7.58028 49.9958 7.60179 49.9958 7.61255L46.0895 13.2284C46.0705 13.2571 46.0287 13.2643 45.9982 13.2464C45.9906 13.2428 45.983 13.2356 45.9792 13.2284L41.8599 7.49062C41.8599 7.49062 41.8599 7.4691 41.8599 7.45835V1.15032C41.8599 1.11805 41.8295 1.08936 41.7914 1.08577H33.279C33.2409 1.08577 33.2143 1.11805 33.2143 1.15032V9.94354C33.2143 9.94354 33.2143 9.96864 33.2143 9.98299L41.6507 21.6595C41.6507 21.6595 41.6545 21.6846 41.6507 21.6953V28.8676C41.6507 28.8999 41.6811 28.9286 41.7154 28.9286H53.0691C53.1186 28.9286 53.1642 28.8963 53.1794 28.8497L55.8648 20.0995C55.9142 19.8413 55.7811 19.5831 55.5301 19.4576" fill="#F4BB32"/>
</svg>
