<svg width="76" height="76" viewBox="0 0 76 76" fill="none" xmlns="http://www.w3.org/2000/svg">
<rect width="76" height="76" rx="15" fill="#3D3D3D"/>
<path d="M40.5 27.9999V21.3333" stroke="white" stroke-width="2" stroke-linecap="round" stroke-linejoin="round"/>
<path d="M38 30.5C38 29.7234 38 29.3352 38.1268 29.0289C38.296 28.6205 38.6205 28.296 39.0288 28.1269C39.3352 28 39.7235 28 40.5 28C41.2765 28 41.6648 28 41.9712 28.1269C42.3795 28.296 42.704 28.6205 42.8732 29.0289C43 29.3352 43 29.7234 43 30.5V33.8333C43 34.6099 43 34.9982 42.8732 35.3045C42.704 35.7128 42.3795 36.0373 41.9712 36.2065C41.6648 36.3333 41.2765 36.3333 40.5 36.3333C39.7235 36.3333 39.3352 36.3333 39.0288 36.2065C38.6205 36.0373 38.296 35.7128 38.1268 35.3045C38 34.9982 38 34.6099 38 33.8333V30.5Z" stroke="white" stroke-width="2"/>
<path d="M40.5 54.6666C50.5 54.6666 53 47.1499 53 37.9999C53 28.8499 50.5 21.3333 40.5 21.3333C30.4999 21.3333 28 28.8499 28 37.9999C28 47.1499 30.4999 54.6666 40.5 54.6666Z" stroke="white" stroke-width="2"/>
<path d="M26.3333 21.3333C24.5755 23.2192 23.3924 25.5018 23 27.9999" stroke="white" stroke-width="2" stroke-linecap="round"/>
</svg>
