<svg width="40" height="40" viewBox="0 0 40 40" fill="none" xmlns="http://www.w3.org/2000/svg">
<path d="M16.6667 16.6667C16.6667 18.5077 18.159 20 20 20C21.841 20 23.3334 18.5077 23.3334 16.6667C23.3334 14.8257 21.841 13.3333 20 13.3333C18.159 13.3333 16.6667 14.8257 16.6667 16.6667Z" stroke="white" stroke-width="2"/>
<path d="M30.409 25C32.2389 22.7173 33.3334 19.8198 33.3334 16.6667C33.3334 9.30286 27.3639 3.33333 20 3.33333C12.6362 3.33333 6.66669 9.30286 6.66669 16.6667C6.66669 19.8198 7.76122 22.7173 9.59107 25" stroke="white" stroke-width="2" stroke-linecap="round"/>
<path d="M5 30.8333C5 28.4925 5 27.3222 5.50558 26.4815C5.72447 26.1175 6.00572 25.805 6.33328 25.5618C7.08997 25 8.1433 25 10.25 25H29.75C31.8567 25 32.91 25 33.6667 25.5618C33.9943 25.805 34.2755 26.1175 34.4943 26.4815C35 27.3222 35 28.4925 35 30.8333C35 33.1742 35 34.3445 34.4943 35.1852C34.2755 35.5492 33.9943 35.8617 33.6667 36.1048C32.91 36.6667 31.8567 36.6667 29.75 36.6667H10.25C8.1433 36.6667 7.08997 36.6667 6.33328 36.1048C6.00572 35.8617 5.72447 35.5492 5.50558 35.1852C5 34.3445 5 33.1742 5 30.8333Z" stroke="white" stroke-width="2"/>
<path d="M18.3333 30H21.6666" stroke="white" stroke-width="2" stroke-linecap="round" stroke-linejoin="round"/>
<path d="M26.484 11.0176L29.8363 7.66521" stroke="white" stroke-width="2" stroke-linecap="round" stroke-linejoin="round"/>
</svg>
