<svg width="48" height="48" viewBox="0 0 48 48" fill="none" xmlns="http://www.w3.org/2000/svg">
<circle cx="24" cy="24" r="24" fill="white"/>
<path d="M33.5 24C33.5 25.3807 32.3807 26.5 31 26.5C29.6193 26.5 28.5 25.3807 28.5 24C28.5 22.6193 29.6193 21.5 31 21.5C32.3807 21.5 33.5 22.6193 33.5 24Z" stroke="black" stroke-width="1.5"/>
<path d="M25.5 16C25.5 16.8284 24.8284 17.5 24 17.5C23.1716 17.5 22.5 16.8284 22.5 16C22.5 15.1716 23.1716 14.5 24 14.5C24.8284 14.5 25.5 15.1716 25.5 16Z" stroke="black" stroke-width="1.5"/>
<path d="M24.5 23.5C24.5 24.3284 23.8284 25 23 25C22.1716 25 21.5 24.3284 21.5 23.5C21.5 22.6716 22.1716 22 23 22C23.8284 22 24.5 22.6716 24.5 23.5Z" stroke="black" stroke-width="1.5"/>
<path d="M18.5 19.5C18.5 20.6046 17.6046 21.5 16.5 21.5C15.3954 21.5 14.5 20.6046 14.5 19.5C14.5 18.3954 15.3954 17.5 16.5 17.5C17.6046 17.5 18.5 18.3954 18.5 19.5Z" stroke="black" stroke-width="1.5"/>
<path d="M22.5 31.5C22.5 32.6046 21.6046 33.5 20.5 33.5C19.3954 33.5 18.5 32.6046 18.5 31.5C18.5 30.3954 19.3954 29.5 20.5 29.5C21.6046 29.5 22.5 30.3954 22.5 31.5Z" stroke="black" stroke-width="1.5"/>
<path d="M25.5 17L29.5 22M26.5 27.5L22.5 30.5M20 29.5L17 21.5M18.313 18.6543L22.5 16.5M24.5 23.5L28.505 23.8443" stroke="black" stroke-width="1.5" stroke-linecap="round" stroke-linejoin="round"/>
<path d="M24 17.5L23 22" stroke="black" stroke-width="1.5" stroke-linecap="round" stroke-linejoin="round"/>
</svg>
