<svg width="40" height="40" viewBox="0 0 40 40" fill="none" xmlns="http://www.w3.org/2000/svg">
<path d="M14.3803 21.1227H13.6153C11.1424 21.1227 9.90598 21.1227 9.37895 20.3073C8.85192 19.4922 9.35408 18.3563 10.3584 16.0847L13.3778 9.25538C14.291 7.19 14.7476 6.1573 15.6333 5.57865C16.5191 5 17.6432 5 19.8917 5H23.374C26.1053 5 27.471 5 27.986 5.89225C28.5012 6.7845 27.8237 7.97647 26.4685 10.3604L24.682 13.5031C24.0084 14.6882 23.6715 15.2808 23.6762 15.7659C23.6824 16.3963 24.0175 16.977 24.559 17.295C24.9757 17.5398 25.6545 17.5398 27.0123 17.5398C28.7288 17.5398 29.5872 17.5398 30.0342 17.837C30.6149 18.223 30.9189 18.9137 30.8124 19.6053C30.7304 20.1377 30.153 20.776 28.9984 22.0528L19.7732 32.2538C17.9612 34.2575 17.0552 35.2593 16.4468 34.9423C15.8384 34.6252 16.1306 33.3037 16.7149 30.6603L17.8595 25.4827C18.3044 23.47 18.5269 22.4637 17.9919 21.7932C17.4569 21.1227 16.4313 21.1227 14.3803 21.1227Z" stroke="white" stroke-width="2" stroke-linejoin="round"/>
</svg>
